<svg width="136" height="26" viewBox="0 0 136 26" fill="none" xmlns="http://www.w3.org/2000/svg">
<path d="M126.544 19.8029V9.53306H129.484L129.619 13.1691L128.826 12.8983C129.007 12.2278 129.31 11.6283 129.735 11.0996C130.174 10.5581 130.683 10.1262 131.263 9.80383C131.856 9.48148 132.475 9.32031 133.12 9.32031C133.494 9.32031 133.848 9.35899 134.183 9.43636C134.532 9.51372 134.828 9.61042 135.073 9.72646L134.222 13.0917C134.003 12.937 133.706 12.8209 133.332 12.7436C132.971 12.6533 132.61 12.6082 132.249 12.6082C131.837 12.6082 131.469 12.6727 131.147 12.8016C130.838 12.9305 130.567 13.1111 130.335 13.3431C130.115 13.5623 129.948 13.8138 129.832 14.0974C129.716 14.3682 129.658 14.6647 129.658 14.9871V19.8029H126.544Z" fill="black"/>
<path d="M118.065 19.9963C116.763 19.9963 115.622 19.7706 114.642 19.3194C113.675 18.8552 112.92 18.2234 112.379 17.424C111.85 16.6246 111.586 15.722 111.586 14.7163C111.586 13.904 111.741 13.1691 112.05 12.5115C112.372 11.841 112.811 11.2737 113.365 10.8095C113.92 10.3325 114.564 9.965 115.299 9.70712C116.047 9.44925 116.84 9.32031 117.678 9.32031C118.503 9.32031 119.264 9.44925 119.96 9.70712C120.67 9.965 121.282 10.326 121.798 10.7902C122.326 11.2415 122.726 11.783 122.997 12.4148C123.281 13.0466 123.409 13.7428 123.384 14.5036L123.364 15.4126H113.675L113.23 13.5559H120.85L120.521 13.962V13.5752C120.483 13.2271 120.334 12.9241 120.076 12.6662C119.819 12.4083 119.483 12.2085 119.071 12.0667C118.671 11.9119 118.22 11.8346 117.717 11.8346C117.098 11.8346 116.544 11.9313 116.054 12.1247C115.564 12.3181 115.177 12.6146 114.893 13.0144C114.622 13.4012 114.487 13.8911 114.487 14.4842C114.487 15.0387 114.648 15.5351 114.971 15.9734C115.293 16.3989 115.757 16.7406 116.363 16.9985C116.969 17.2435 117.678 17.366 118.49 17.366C119.238 17.366 119.857 17.2822 120.347 17.1145C120.837 16.934 121.25 16.7277 121.585 16.4956L122.958 18.5071C122.52 18.8294 122.036 19.1002 121.508 19.3194C120.979 19.5385 120.418 19.7062 119.825 19.8222C119.245 19.9383 118.658 19.9963 118.065 19.9963Z" fill="black"/>
<path d="M99.1136 24.2494L101.937 18.7567L101.821 20.2846L96.1738 9.53125H99.7518L102.343 14.9466C102.55 15.3334 102.737 15.7331 102.904 16.1457C103.085 16.5454 103.24 16.9387 103.368 17.3255L102.711 17.4415C102.84 17.1321 102.995 16.7646 103.175 16.3391C103.356 15.9136 103.543 15.4817 103.736 15.0433L106.173 9.53125H109.732L104.432 19.8591L102.266 24.2494H99.1136Z" fill="black"/>
<path d="M86.8546 19.9769C85.7973 19.9769 84.869 19.7513 84.0695 19.3C83.2701 18.8358 82.6448 18.2041 82.1935 17.4046C81.7422 16.6052 81.5166 15.6962 81.5166 14.6776C81.5166 13.6332 81.7422 12.7113 82.1935 11.9119C82.6577 11.0996 83.2895 10.4678 84.0889 10.0166C84.9012 9.5524 85.8489 9.32031 86.9319 9.32031C87.5379 9.32031 88.0988 9.39767 88.6146 9.5524C89.1303 9.70712 89.588 9.91342 89.9877 10.1713C90.3874 10.4163 90.7098 10.6935 90.9548 11.0029C91.2126 11.3124 91.3738 11.6218 91.4383 11.9313L90.7227 11.97V9.53306H93.7978V19.8029H90.6647V17.1145L91.3222 17.2499C91.2707 17.5852 91.1159 17.9139 90.8581 18.2363C90.6002 18.5586 90.2714 18.8552 89.8717 19.1259C89.472 19.3838 89.0143 19.5901 88.4985 19.7448C87.9828 19.8996 87.4348 19.9769 86.8546 19.9769ZM87.6669 17.366C88.3116 17.366 88.8595 17.2564 89.3108 17.0372C89.775 16.8051 90.1296 16.4892 90.3746 16.0895C90.6324 15.6769 90.7614 15.2063 90.7614 14.6776C90.7614 14.1232 90.6324 13.6461 90.3746 13.2464C90.1296 12.8467 89.775 12.5308 89.3108 12.2988C88.8595 12.0667 88.3116 11.9506 87.6669 11.9506C87.048 11.9506 86.5065 12.0667 86.0423 12.2988C85.591 12.5308 85.2364 12.8467 84.9786 13.2464C84.7207 13.6461 84.5917 14.1232 84.5917 14.6776C84.5917 15.2063 84.7207 15.6769 84.9786 16.0895C85.2364 16.4892 85.591 16.8051 86.0423 17.0372C86.5065 17.2564 87.048 17.366 87.6669 17.366Z" fill="black"/>
<path d="M75.9258 19.8042V5.49219H79.0203V19.8042H75.9258Z" fill="black"/>
<path d="M62.4785 19.8029V9.53306H65.4183L65.5343 12.0473L64.7607 12.2601C64.9283 11.7443 65.2184 11.2673 65.631 10.8289C66.0565 10.3776 66.5723 10.0166 67.1783 9.7458C67.7972 9.46214 68.4741 9.32031 69.209 9.32031C70.1374 9.32031 70.911 9.50082 71.5299 9.86185C72.1617 10.2229 72.6387 10.7322 72.9611 11.3897C73.2963 12.0344 73.4639 12.7823 73.4639 13.6332V19.8029H70.3694V14.1361C70.3694 13.6848 70.2727 13.2916 70.0793 12.9563C69.8988 12.6211 69.6345 12.3632 69.2864 12.1827C68.9511 12.0022 68.5579 11.9184 68.1066 11.9313C67.7198 11.9313 67.3717 12.0022 67.0622 12.144C66.7528 12.273 66.482 12.447 66.2499 12.6662C66.0307 12.8854 65.8631 13.1239 65.7471 13.3818C65.6439 13.6397 65.5923 13.8976 65.5923 14.1554V19.8029H64.0451C63.5938 19.8029 63.2392 19.8029 62.9814 19.8029C62.7235 19.8029 62.5559 19.8029 62.4785 19.8029Z" fill="black"/>
<path d="M53.6312 19.9963C52.3934 19.9963 51.291 19.7706 50.324 19.3194C49.3569 18.8552 48.5962 18.2234 48.0418 17.424C47.5003 16.6117 47.2295 15.6898 47.2295 14.6583C47.2295 13.6139 47.5003 12.692 48.0418 11.8926C48.5962 11.0932 49.3569 10.4678 50.324 10.0166C51.291 9.5524 52.3934 9.32031 53.6312 9.32031C54.8948 9.32031 56.0036 9.5524 56.9578 10.0166C57.9119 10.4678 58.6597 11.0932 59.2013 11.8926C59.7557 12.692 60.0329 13.6139 60.0329 14.6583C60.0329 15.6898 59.7557 16.6117 59.2013 17.424C58.6597 18.2234 57.9119 18.8552 56.9578 19.3194C56.0036 19.7706 54.8948 19.9963 53.6312 19.9963ZM53.6505 17.3273C54.2565 17.3273 54.8045 17.2177 55.2945 16.9985C55.7973 16.7664 56.1906 16.4505 56.4743 16.0508C56.7708 15.6511 56.9126 15.1869 56.8997 14.6583C56.9126 14.1297 56.7708 13.6655 56.4743 13.2658C56.1906 12.8532 55.7973 12.5373 55.2945 12.3181C54.8045 12.086 54.2565 11.97 53.6505 11.97C53.0316 11.97 52.4708 12.086 51.9679 12.3181C51.4651 12.5373 51.0718 12.8532 50.7881 13.2658C50.5045 13.6655 50.3627 14.1297 50.3627 14.6583C50.3627 15.1869 50.5045 15.6511 50.7881 16.0508C51.0718 16.4505 51.4651 16.7664 51.9679 16.9985C52.4708 17.2177 53.0316 17.3273 53.6505 17.3273Z" fill="black"/>
<path d="M37.9839 19.804V9.1667H33.1875V6.26562H46.1456V9.1667H41.2718V19.804H37.9839Z" fill="black"/>
<path d="M10.3574 4.86179L17.7558 12.2602L24.4143 5.60163L20.3981 1.58537L15.7477 6.23577V0H10.3574V4.86179Z" fill="black"/>
<path d="M15.748 21.1382L8.34967 13.7398L1.69114 20.3984L5.7074 24.4146L10.3578 19.7642L10.3578 26L15.748 26L15.748 21.1382Z" fill="black"/>
<path d="M4.86179 15.9609L12.2602 8.56256L5.60163 1.90403L1.58537 5.92029L6.23577 10.5707L-2.35615e-07 10.5707L0 15.9609L4.86179 15.9609Z" fill="black"/>
<path d="M21.3491 10.7812L13.9508 18.1796L20.6093 24.8382L24.6256 20.8219L19.9752 16.1715L26.2109 16.1715L26.2109 10.7812L21.3491 10.7812Z" fill="black"/>
</svg>
